<?xml version="1.0" encoding="UTF-8" standalone="no"?>
<!DOCTYPE svg PUBLIC "-//W3C//DTD SVG 1.1//EN"
 "http://www.w3.org/Graphics/SVG/1.1/DTD/svg11.dtd">
<!-- Generated by graphviz version 12.2.0 (0)
 -->
<!-- Title: Tree Pages: 1 -->
<svg width="387pt" height="346pt"
 viewBox="0.00 0.00 387.00 345.50" xmlns="http://www.w3.org/2000/svg" xmlns:xlink="http://www.w3.org/1999/xlink">
<g id="graph0" class="graph" transform="scale(1 1) rotate(0) translate(4 341.5)">
<title>Tree</title>
<polygon fill="white" stroke="none" points="-4,4 -4,-341.5 383,-341.5 383,4 -4,4"/>
<!-- 0 -->
<g id="node1" class="node">
<title>0</title>
<path fill="#ffffff" stroke="black" d="M217,-337.5C217,-337.5 84,-337.5 84,-337.5 78,-337.5 72,-331.5 72,-325.5 72,-325.5 72,-255.25 72,-255.25 72,-249.25 78,-243.25 84,-243.25 84,-243.25 217,-243.25 217,-243.25 223,-243.25 229,-249.25 229,-255.25 229,-255.25 229,-325.5 229,-325.5 229,-331.5 223,-337.5 217,-337.5"/>
<text text-anchor="middle" x="150.5" y="-320.2" font-family="Helvetica,sans-Serif" font-size="14.00">x[0] &lt;= 2.45</text>
<text text-anchor="middle" x="150.5" y="-302.95" font-family="Helvetica,sans-Serif" font-size="14.00">gini = 0.667</text>
<text text-anchor="middle" x="150.5" y="-285.7" font-family="Helvetica,sans-Serif" font-size="14.00">samples = 150</text>
<text text-anchor="middle" x="150.5" y="-268.45" font-family="Helvetica,sans-Serif" font-size="14.00">value = [50, 50, 50]</text>
<text text-anchor="middle" x="150.5" y="-251.2" font-family="Helvetica,sans-Serif" font-size="14.00">class = setosa</text>
</g>
<!-- 1 -->
<g id="node2" class="node">
<title>1</title>
<path fill="#e58139" stroke="black" d="M127,-198.62C127,-198.62 12,-198.62 12,-198.62 6,-198.62 0,-192.62 0,-186.62 0,-186.62 0,-133.62 0,-133.62 0,-127.62 6,-121.62 12,-121.62 12,-121.62 127,-121.62 127,-121.62 133,-121.62 139,-127.62 139,-133.62 139,-133.62 139,-186.62 139,-186.62 139,-192.62 133,-198.62 127,-198.62"/>
<text text-anchor="middle" x="69.5" y="-181.32" font-family="Helvetica,sans-Serif" font-size="14.00">gini = 0.0</text>
<text text-anchor="middle" x="69.5" y="-164.07" font-family="Helvetica,sans-Serif" font-size="14.00">samples = 50</text>
<text text-anchor="middle" x="69.5" y="-146.82" font-family="Helvetica,sans-Serif" font-size="14.00">value = [50, 0, 0]</text>
<text text-anchor="middle" x="69.5" y="-129.57" font-family="Helvetica,sans-Serif" font-size="14.00">class = setosa</text>
</g>
<!-- 0&#45;&gt;1 -->
<g id="edge1" class="edge">
<title>0&#45;&gt;1</title>
<path fill="none" stroke="black" d="M121.26,-243.07C114.18,-231.86 106.6,-219.87 99.49,-208.6"/>
<polygon fill="black" stroke="black" points="102.49,-206.8 94.19,-200.21 96.57,-210.54 102.49,-206.8"/>
<text text-anchor="middle" x="87.87" y="-218.64" font-family="Helvetica,sans-Serif" font-size="14.00">True</text>
</g>
<!-- 2 -->
<g id="node3" class="node">
<title>2</title>
<path fill="#ffffff" stroke="black" d="M293.5,-207.25C293.5,-207.25 169.5,-207.25 169.5,-207.25 163.5,-207.25 157.5,-201.25 157.5,-195.25 157.5,-195.25 157.5,-125 157.5,-125 157.5,-119 163.5,-113 169.5,-113 169.5,-113 293.5,-113 293.5,-113 299.5,-113 305.5,-119 305.5,-125 305.5,-125 305.5,-195.25 305.5,-195.25 305.5,-201.25 299.5,-207.25 293.5,-207.25"/>
<text text-anchor="middle" x="231.5" y="-189.95" font-family="Helvetica,sans-Serif" font-size="14.00">x[1] &lt;= 1.75</text>
<text text-anchor="middle" x="231.5" y="-172.7" font-family="Helvetica,sans-Serif" font-size="14.00">gini = 0.5</text>
<text text-anchor="middle" x="231.5" y="-155.45" font-family="Helvetica,sans-Serif" font-size="14.00">samples = 100</text>
<text text-anchor="middle" x="231.5" y="-138.2" font-family="Helvetica,sans-Serif" font-size="14.00">value = [0, 50, 50]</text>
<text text-anchor="middle" x="231.5" y="-120.95" font-family="Helvetica,sans-Serif" font-size="14.00">class = versicolor</text>
</g>
<!-- 0&#45;&gt;2 -->
<g id="edge2" class="edge">
<title>0&#45;&gt;2</title>
<path fill="none" stroke="black" d="M179.74,-243.07C185.08,-234.63 190.69,-225.74 196.18,-217.05"/>
<polygon fill="black" stroke="black" points="199.11,-218.96 201.49,-208.64 193.19,-215.22 199.11,-218.96"/>
<text text-anchor="middle" x="207.81" y="-227.07" font-family="Helvetica,sans-Serif" font-size="14.00">False</text>
</g>
<!-- 3 -->
<g id="node4" class="node">
<title>3</title>
<path fill="#4de88e" stroke="black" d="M210,-77C210,-77 95,-77 95,-77 89,-77 83,-71 83,-65 83,-65 83,-12 83,-12 83,-6 89,0 95,0 95,0 210,0 210,0 216,0 222,-6 222,-12 222,-12 222,-65 222,-65 222,-71 216,-77 210,-77"/>
<text text-anchor="middle" x="152.5" y="-59.7" font-family="Helvetica,sans-Serif" font-size="14.00">gini = 0.168</text>
<text text-anchor="middle" x="152.5" y="-42.45" font-family="Helvetica,sans-Serif" font-size="14.00">samples = 54</text>
<text text-anchor="middle" x="152.5" y="-25.2" font-family="Helvetica,sans-Serif" font-size="14.00">value = [0, 49, 5]</text>
<text text-anchor="middle" x="152.5" y="-7.95" font-family="Helvetica,sans-Serif" font-size="14.00">class = versicolor</text>
</g>
<!-- 2&#45;&gt;3 -->
<g id="edge3" class="edge">
<title>2&#45;&gt;3</title>
<path fill="none" stroke="black" d="M200.73,-112.53C195.13,-104.05 189.28,-95.19 183.66,-86.69"/>
<polygon fill="black" stroke="black" points="186.72,-84.96 178.28,-78.54 180.87,-88.82 186.72,-84.96"/>
</g>
<!-- 4 -->
<g id="node5" class="node">
<title>4</title>
<path fill="#843de6" stroke="black" d="M367,-77C367,-77 252,-77 252,-77 246,-77 240,-71 240,-65 240,-65 240,-12 240,-12 240,-6 246,0 252,0 252,0 367,0 367,0 373,0 379,-6 379,-12 379,-12 379,-65 379,-65 379,-71 373,-77 367,-77"/>
<text text-anchor="middle" x="309.5" y="-59.7" font-family="Helvetica,sans-Serif" font-size="14.00">gini = 0.043</text>
<text text-anchor="middle" x="309.5" y="-42.45" font-family="Helvetica,sans-Serif" font-size="14.00">samples = 46</text>
<text text-anchor="middle" x="309.5" y="-25.2" font-family="Helvetica,sans-Serif" font-size="14.00">value = [0, 1, 45]</text>
<text text-anchor="middle" x="309.5" y="-7.95" font-family="Helvetica,sans-Serif" font-size="14.00">class = virginica</text>
</g>
<!-- 2&#45;&gt;4 -->
<g id="edge4" class="edge">
<title>2&#45;&gt;4</title>
<path fill="none" stroke="black" d="M261.88,-112.53C267.41,-104.05 273.19,-95.19 278.73,-86.69"/>
<polygon fill="black" stroke="black" points="281.51,-88.84 284.04,-78.55 275.65,-85.01 281.51,-88.84"/>
</g>
</g>
</svg>
