<?xml version="1.0" encoding="UTF-8" standalone="no"?>
<!DOCTYPE svg PUBLIC "-//W3C//DTD SVG 1.1//EN"
 "http://www.w3.org/Graphics/SVG/1.1/DTD/svg11.dtd">
<!-- Generated by graphviz version 12.2.0 (0)
 -->
<!-- Title: Tree Pages: 1 -->
<svg width="758pt" height="294pt"
 viewBox="0.00 0.00 757.50 293.75" xmlns="http://www.w3.org/2000/svg" xmlns:xlink="http://www.w3.org/1999/xlink">
<g id="graph0" class="graph" transform="scale(1 1) rotate(0) translate(4 289.75)">
<title>Tree</title>
<polygon fill="white" stroke="none" points="-4,4 -4,-289.75 753.5,-289.75 753.5,4 -4,4"/>
<!-- 0 -->
<g id="node1" class="node">
<title>0</title>
<path fill="#f6d6be" stroke="black" d="M449.5,-285.75C449.5,-285.75 300,-285.75 300,-285.75 294,-285.75 288,-279.75 288,-273.75 288,-273.75 288,-220.75 288,-220.75 288,-214.75 294,-208.75 300,-208.75 300,-208.75 449.5,-208.75 449.5,-208.75 455.5,-208.75 461.5,-214.75 461.5,-220.75 461.5,-220.75 461.5,-273.75 461.5,-273.75 461.5,-279.75 455.5,-285.75 449.5,-285.75"/>
<text text-anchor="middle" x="374.75" y="-268.45" font-family="Helvetica,sans-Serif" font-size="14.00">x1 &lt;= 0.197</text>
<text text-anchor="middle" x="374.75" y="-251.2" font-family="Helvetica,sans-Serif" font-size="14.00">squared_error = 0.098</text>
<text text-anchor="middle" x="374.75" y="-233.95" font-family="Helvetica,sans-Serif" font-size="14.00">samples = 200</text>
<text text-anchor="middle" x="374.75" y="-216.7" font-family="Helvetica,sans-Serif" font-size="14.00">value = 0.354</text>
</g>
<!-- 1 -->
<g id="node2" class="node">
<title>1</title>
<path fill="#eb9d65" stroke="black" d="M353.5,-172.75C353.5,-172.75 204,-172.75 204,-172.75 198,-172.75 192,-166.75 192,-160.75 192,-160.75 192,-107.75 192,-107.75 192,-101.75 198,-95.75 204,-95.75 204,-95.75 353.5,-95.75 353.5,-95.75 359.5,-95.75 365.5,-101.75 365.5,-107.75 365.5,-107.75 365.5,-160.75 365.5,-160.75 365.5,-166.75 359.5,-172.75 353.5,-172.75"/>
<text text-anchor="middle" x="278.75" y="-155.45" font-family="Helvetica,sans-Serif" font-size="14.00">x1 &lt;= 0.092</text>
<text text-anchor="middle" x="278.75" y="-138.2" font-family="Helvetica,sans-Serif" font-size="14.00">squared_error = 0.038</text>
<text text-anchor="middle" x="278.75" y="-120.95" font-family="Helvetica,sans-Serif" font-size="14.00">samples = 44</text>
<text text-anchor="middle" x="278.75" y="-103.7" font-family="Helvetica,sans-Serif" font-size="14.00">value = 0.689</text>
</g>
<!-- 0&#45;&gt;1 -->
<g id="edge1" class="edge">
<title>0&#45;&gt;1</title>
<path fill="none" stroke="black" d="M341.98,-208.36C334.49,-199.7 326.45,-190.4 318.69,-181.43"/>
<polygon fill="black" stroke="black" points="321.55,-179.39 312.36,-174.11 316.26,-183.97 321.55,-179.39"/>
<text text-anchor="middle" x="309.56" y="-193.23" font-family="Helvetica,sans-Serif" font-size="14.00">True</text>
</g>
<!-- 4 -->
<g id="node5" class="node">
<title>4</title>
<path fill="#fae6d7" stroke="black" d="M545.5,-172.75C545.5,-172.75 396,-172.75 396,-172.75 390,-172.75 384,-166.75 384,-160.75 384,-160.75 384,-107.75 384,-107.75 384,-101.75 390,-95.75 396,-95.75 396,-95.75 545.5,-95.75 545.5,-95.75 551.5,-95.75 557.5,-101.75 557.5,-107.75 557.5,-107.75 557.5,-160.75 557.5,-160.75 557.5,-166.75 551.5,-172.75 545.5,-172.75"/>
<text text-anchor="middle" x="470.75" y="-155.45" font-family="Helvetica,sans-Serif" font-size="14.00">x1 &lt;= 0.772</text>
<text text-anchor="middle" x="470.75" y="-138.2" font-family="Helvetica,sans-Serif" font-size="14.00">squared_error = 0.074</text>
<text text-anchor="middle" x="470.75" y="-120.95" font-family="Helvetica,sans-Serif" font-size="14.00">samples = 156</text>
<text text-anchor="middle" x="470.75" y="-103.7" font-family="Helvetica,sans-Serif" font-size="14.00">value = 0.259</text>
</g>
<!-- 0&#45;&gt;4 -->
<g id="edge4" class="edge">
<title>0&#45;&gt;4</title>
<path fill="none" stroke="black" d="M407.52,-208.36C415.01,-199.7 423.05,-190.4 430.81,-181.43"/>
<polygon fill="black" stroke="black" points="433.24,-183.97 437.14,-174.11 427.95,-179.39 433.24,-183.97"/>
<text text-anchor="middle" x="439.94" y="-193.23" font-family="Helvetica,sans-Serif" font-size="14.00">False</text>
</g>
<!-- 2 -->
<g id="node3" class="node">
<title>2</title>
<path fill="#e58139" stroke="black" d="M161.5,-59.75C161.5,-59.75 12,-59.75 12,-59.75 6,-59.75 0,-53.75 0,-47.75 0,-47.75 0,-12 0,-12 0,-6 6,0 12,0 12,0 161.5,0 161.5,0 167.5,0 173.5,-6 173.5,-12 173.5,-12 173.5,-47.75 173.5,-47.75 173.5,-53.75 167.5,-59.75 161.5,-59.75"/>
<text text-anchor="middle" x="86.75" y="-42.45" font-family="Helvetica,sans-Serif" font-size="14.00">squared_error = 0.018</text>
<text text-anchor="middle" x="86.75" y="-25.2" font-family="Helvetica,sans-Serif" font-size="14.00">samples = 20</text>
<text text-anchor="middle" x="86.75" y="-7.95" font-family="Helvetica,sans-Serif" font-size="14.00">value = 0.854</text>
</g>
<!-- 1&#45;&gt;2 -->
<g id="edge2" class="edge">
<title>1&#45;&gt;2</title>
<path fill="none" stroke="black" d="M207.53,-95.27C189.24,-85.53 169.67,-75.09 151.72,-65.52"/>
<polygon fill="black" stroke="black" points="153.46,-62.48 142.99,-60.86 150.16,-68.65 153.46,-62.48"/>
</g>
<!-- 3 -->
<g id="node4" class="node">
<title>3</title>
<path fill="#f0b489" stroke="black" d="M353.5,-59.75C353.5,-59.75 204,-59.75 204,-59.75 198,-59.75 192,-53.75 192,-47.75 192,-47.75 192,-12 192,-12 192,-6 198,0 204,0 204,0 353.5,0 353.5,0 359.5,0 365.5,-6 365.5,-12 365.5,-12 365.5,-47.75 365.5,-47.75 365.5,-53.75 359.5,-59.75 353.5,-59.75"/>
<text text-anchor="middle" x="278.75" y="-42.45" font-family="Helvetica,sans-Serif" font-size="14.00">squared_error = 0.013</text>
<text text-anchor="middle" x="278.75" y="-25.2" font-family="Helvetica,sans-Serif" font-size="14.00">samples = 24</text>
<text text-anchor="middle" x="278.75" y="-7.95" font-family="Helvetica,sans-Serif" font-size="14.00">value = 0.552</text>
</g>
<!-- 1&#45;&gt;3 -->
<g id="edge3" class="edge">
<title>1&#45;&gt;3</title>
<path fill="none" stroke="black" d="M278.75,-95.42C278.75,-87.7 278.75,-79.55 278.75,-71.74"/>
<polygon fill="black" stroke="black" points="282.25,-71.74 278.75,-61.74 275.25,-71.74 282.25,-71.74"/>
</g>
<!-- 5 -->
<g id="node6" class="node">
<title>5</title>
<path fill="#ffffff" stroke="black" d="M545.5,-59.75C545.5,-59.75 396,-59.75 396,-59.75 390,-59.75 384,-53.75 384,-47.75 384,-47.75 384,-12 384,-12 384,-6 390,0 396,0 396,0 545.5,0 545.5,0 551.5,0 557.5,-6 557.5,-12 557.5,-12 557.5,-47.75 557.5,-47.75 557.5,-53.75 551.5,-59.75 545.5,-59.75"/>
<text text-anchor="middle" x="470.75" y="-42.45" font-family="Helvetica,sans-Serif" font-size="14.00">squared_error = 0.015</text>
<text text-anchor="middle" x="470.75" y="-25.2" font-family="Helvetica,sans-Serif" font-size="14.00">samples = 110</text>
<text text-anchor="middle" x="470.75" y="-7.95" font-family="Helvetica,sans-Serif" font-size="14.00">value = 0.111</text>
</g>
<!-- 4&#45;&gt;5 -->
<g id="edge5" class="edge">
<title>4&#45;&gt;5</title>
<path fill="none" stroke="black" d="M470.75,-95.42C470.75,-87.7 470.75,-79.55 470.75,-71.74"/>
<polygon fill="black" stroke="black" points="474.25,-71.74 470.75,-61.74 467.25,-71.74 474.25,-71.74"/>
</g>
<!-- 6 -->
<g id="node7" class="node">
<title>6</title>
<path fill="#edaa79" stroke="black" d="M737.5,-59.75C737.5,-59.75 588,-59.75 588,-59.75 582,-59.75 576,-53.75 576,-47.75 576,-47.75 576,-12 576,-12 576,-6 582,0 588,0 588,0 737.5,0 737.5,0 743.5,0 749.5,-6 749.5,-12 749.5,-12 749.5,-47.75 749.5,-47.75 749.5,-53.75 743.5,-59.75 737.5,-59.75"/>
<text text-anchor="middle" x="662.75" y="-42.45" font-family="Helvetica,sans-Serif" font-size="14.00">squared_error = 0.036</text>
<text text-anchor="middle" x="662.75" y="-25.2" font-family="Helvetica,sans-Serif" font-size="14.00">samples = 46</text>
<text text-anchor="middle" x="662.75" y="-7.95" font-family="Helvetica,sans-Serif" font-size="14.00">value = 0.615</text>
</g>
<!-- 4&#45;&gt;6 -->
<g id="edge6" class="edge">
<title>4&#45;&gt;6</title>
<path fill="none" stroke="black" d="M541.97,-95.27C560.26,-85.53 579.83,-75.09 597.78,-65.52"/>
<polygon fill="black" stroke="black" points="599.34,-68.65 606.51,-60.86 596.04,-62.48 599.34,-68.65"/>
</g>
</g>
</svg>
